<svg xmlns="http://www.w3.org/2000/svg" width="512" height="512" viewBox="0 0 512 512" role="img" aria-label="Password Generator key logo (maskable)">
  <defs>
    <linearGradient id="bgm" x1="0" y1="0" x2="1" y2="1">
      <stop offset="0" stop-color="#1a1d24"/>
      <stop offset="1" stop-color="#0a0b0e"/>
    </linearGradient>
    <linearGradient id="keym" x1="0" y1="0" x2="1" y2="1">
      <stop offset="0" stop-color="#b9ffc1"/>
      <stop offset="1" stop-color="#4ade80"/>
    </linearGradient>
  </defs>
  <!-- Full-bleed background; glyph kept inside the 80% maskable safe zone. -->
  <rect width="512" height="512" fill="url(#bgm)"/>
  <g transform="translate(146,146) scale(9.167)" fill="none" stroke="url(#keym)" stroke-width="1.9" stroke-linecap="round" stroke-linejoin="round">
    <path d="M16.555 3.843l3.602 3.602a2.877 2.877 0 0 1 0 4.069l-2.643 2.643a2.877 2.877 0 0 1 -4.069 0l-.301 -.301l-6.558 6.558a2 2 0 0 1 -1.239 .578l-.175 .008h-1.977a1 1 0 0 1 -.993 -.883l-.007 -.117v-1.977a2 2 0 0 1 .467 -1.284l.119 -.13l.414 -.414h2v-2h2v-2l2.144 -2.144l-.301 -.301a2.877 2.877 0 0 1 0 -4.069l2.643 -2.643a2.877 2.877 0 0 1 4.069 0z"/>
    <path d="M15 9h.01"/>
  </g>
</svg>
